# xmcd
#
# Track frame offsets:
#	182
#	17882
#	34207
#	52257
#	71020
#	89445
#	120132
#	140845
#	164920
#	176332
#	192895
#	207695
#	222370
#	256532
#	274207
#	290645
#
# Disc length: 4083
#
# Revision: 1
# Processed by: cddbd v1.5.1PL0 Copyright (c) Steve Scherf et al.
# Submitted via: ExactAudioCopy v0.90b4
# Normalized: r0:DSETVAR1,TDELIM( - )
#
DISCID=020ff110
DTITLE=Various Artist - Sounds of Brazil
DYEAR=1993
DGENRE=Brazil
TTITLE0=Aquele Abraco - Gilberto Gil
TTITLE1=Yorubahia - Maria Bethania
TTITLE2=Rabo De Cometa - Martinho Da Vila
TTITLE3=Ao Velho Pedro - Paulo Moura
TTITLE4=Garoto Maroto - Alcione
TTITLE5=Olhos Coloridos - Sandra Sa
TTITLE6=Vida - Obina Shock
TTITLE7=Decisao - Luiz Melodia
TTITLE8=Olinda Sonhos De Valsa - Alceu Valenca
TTITLE9=Toda Menina Baiana - Gilberto Gil
TTITLE10=Anos Dourados - Maria Bethania
TTITLE11=Fazenda A Cabeca - Martinho Da Vila
TTITLE12=Chorinho Pra Voce - Paulo Moura
TTITLE13=Retratos E Cancoes - Sandra Sa
TTITLE14=Carona Pro Norte - Renato Borghetti
TTITLE15=A Saudate Mata A Gente - Nelson Goncalves with Milton Nascimento
EXTD=
EXTT0=
EXTT1=
EXTT2=
EXTT3=
EXTT4=
EXTT5=
EXTT6=
EXTT7=
EXTT8=
EXTT9=
EXTT10=
EXTT11=
EXTT12=
EXTT13=
EXTT14=
EXTT15=
PLAYORDER=
